<svg xmlns="http://www.w3.org/2000/svg" width="157.94" height="28.562" viewBox="0 0 157.94 28.562">
  <metadata><?xpacket begin="﻿" id="W5M0MpCehiHzreSzNTczkc9d"?>
<x:xmpmeta xmlns:x="adobe:ns:meta/" x:xmptk="Adobe XMP Core 5.6-c138 79.159824, 2016/09/14-01:09:01        ">
   <rdf:RDF xmlns:rdf="http://www.w3.org/1999/02/22-rdf-syntax-ns#">
      <rdf:Description rdf:about=""/>
   </rdf:RDF>
</x:xmpmeta>
                                                                                                    
                                                                                                    
                                                                                                    
                                                                                                    
                                                                                                    
                                                                                                    
                                                                                                    
                                                                                                    
                                                                                                    
                                                                                                    
                                                                                                    
                                                                                                    
                                                                                                    
                                                                                                    
                                                                                                    
                                                                                                    
                                                                                                    
                                                                                                    
                                                                                                    
                                                                                                    
                           
<?xpacket end="w"?></metadata>
<defs>
    <style>
      .cls-1 {
        fill: #fff;
        fill-rule: evenodd;
      }
    </style>
  </defs>
  <path id="logo-white" class="cls-1" d="M1408.1,63.793c1.16,0.783,1.99,1.352,2.5,1.706a2.711,2.711,0,0,1,1.36,1.952,5.326,5.326,0,0,1-1.13,2.6,3.059,3.059,0,0,1-2.32,1.668,4.621,4.621,0,0,1-2.19-1.024c-0.13-.076-0.49-0.316-1.07-0.72s-1.03-.707-1.36-0.91a12.61,12.61,0,0,1-7.92,2.729,13.268,13.268,0,0,1-9.92-4.17,13.784,13.784,0,0,1-4.03-9.932,15.411,15.411,0,0,1,1.13-5.895,13.625,13.625,0,0,1,3.04-4.606,14.083,14.083,0,0,1,4.36-2.919,12.681,12.681,0,0,1,5.07-1.062,13.458,13.458,0,0,1,9.75,4.057,13.8,13.8,0,0,1,4.13,10.273A15.163,15.163,0,0,1,1408.1,63.793ZM1388.73,57.5a7.245,7.245,0,0,0,2.18,5.478,6.728,6.728,0,0,0,9.72.057,7.215,7.215,0,0,0,2.16-5.5A7.317,7.317,0,0,0,1400.61,52a6.888,6.888,0,0,0-4.87-2.085,6.777,6.777,0,0,0-4.85,2.1A7.305,7.305,0,0,0,1388.73,57.5Zm37.22-14.291a13.994,13.994,0,0,1,13.88,14.121,14.462,14.462,0,0,1-3.95,10.235,12.742,12.742,0,0,1-9.7,4.227,13.131,13.131,0,0,1-9.8-4.17,13.793,13.793,0,0,1-4.04-9.932,15.231,15.231,0,0,1,1.14-5.895,13.753,13.753,0,0,1,3.03-4.606,14.321,14.321,0,0,1,4.36-2.919A12.728,12.728,0,0,1,1425.95,43.209Zm-6.9,14.291a7.282,7.282,0,0,0,2.18,5.478,6.74,6.74,0,0,0,9.73.057,7.215,7.215,0,0,0,2.16-5.5A7.317,7.317,0,0,0,1430.94,52a6.9,6.9,0,0,0-4.87-2.085,6.8,6.8,0,0,0-4.86,2.1A7.305,7.305,0,0,0,1419.05,57.5Zm36.28-14.291a13.977,13.977,0,0,1,13.87,14.121,14.454,14.454,0,0,1-3.94,10.235,12.742,12.742,0,0,1-9.7,4.227,13.131,13.131,0,0,1-9.8-4.17,13.793,13.793,0,0,1-4.04-9.932,15.231,15.231,0,0,1,1.14-5.895,13.753,13.753,0,0,1,3.03-4.606,14.2,14.2,0,0,1,4.36-2.919A12.728,12.728,0,0,1,1455.33,43.209Zm-6.9,14.291a7.282,7.282,0,0,0,2.18,5.478,6.728,6.728,0,0,0,9.72.057,7.215,7.215,0,0,0,2.16-5.5A7.281,7.281,0,0,0,1460.31,52a6.87,6.87,0,0,0-4.87-2.085,6.794,6.794,0,0,0-4.85,2.1A7.305,7.305,0,0,0,1448.43,57.5Zm29.95,8.226h10.31a4.33,4.33,0,0,1,1.82.284,1.449,1.449,0,0,1,.76.891,6.926,6.926,0,0,1,0,3.222,1.3,1.3,0,0,1-.65.834,4.248,4.248,0,0,1-1.97.379H1475c-1.76,0-2.8-.48-3.1-1.44a5.721,5.721,0,0,1-.23-1.934V46.886a10.445,10.445,0,0,1,.06-1.308,2.72,2.72,0,0,1,.36-1c0.35-.682,1.34-1.023,2.95-1.023q2.655,0,3.15,1.4a7.383,7.383,0,0,1,.19,1.971v18.8Zm22.25,0h10.31a4.33,4.33,0,0,1,1.82.284,1.449,1.449,0,0,1,.76.891,6.926,6.926,0,0,1,0,3.222,1.3,1.3,0,0,1-.65.834,4.248,4.248,0,0,1-1.97.379h-13.64c-1.77,0-2.81-.48-3.11-1.44a5.992,5.992,0,0,1-.23-1.934V46.886a10.445,10.445,0,0,1,.06-1.308,2.72,2.72,0,0,1,.36-1c0.35-.682,1.34-1.023,2.95-1.023q2.655,0,3.15,1.4a7.383,7.383,0,0,1,.19,1.971v18.8Zm25.46-22.518a13.977,13.977,0,0,1,13.88,14.121,14.5,14.5,0,0,1-3.94,10.235,12.763,12.763,0,0,1-9.71,4.227,13.131,13.131,0,0,1-9.8-4.17,13.793,13.793,0,0,1-4.04-9.932,15.231,15.231,0,0,1,1.14-5.895,13.753,13.753,0,0,1,3.03-4.606,14.321,14.321,0,0,1,4.36-2.919A12.764,12.764,0,0,1,1526.09,43.209Zm-6.9,14.291a7.282,7.282,0,0,0,2.18,5.478,6.74,6.74,0,0,0,9.73.057,7.215,7.215,0,0,0,2.16-5.5A7.317,7.317,0,0,0,1531.08,52a6.9,6.9,0,0,0-4.87-2.085,6.777,6.777,0,0,0-4.85,2.1A7.275,7.275,0,0,0,1519.19,57.5Z" transform="translate(-1382.03 -43.219)"/>
</svg>
